<?xml version="1.0" encoding="UTF-8" standalone="no"?><!DOCTYPE svg PUBLIC "-//W3C//DTD SVG 1.1//EN" "http://www.w3.org/Graphics/SVG/1.1/DTD/svg11.dtd"><svg width="100%" height="100%" viewBox="0 0 238 69" version="1.1" xmlns="http://www.w3.org/2000/svg" xmlns:xlink="http://www.w3.org/1999/xlink" xml:space="preserve" xmlns:serif="http://www.serif.com/" style="fill-rule:evenodd;clip-rule:evenodd;stroke-linejoin:round;stroke-miterlimit:2;"><rect id="Artboard1" x="0" y="0" width="237.627" height="68.52" style="fill:none;"/><clipPath id="_clip1"><rect x="0" y="0" width="237.627" height="68.52"/></clipPath><g clip-path="url(#_clip1)"><rect x="-32.579" y="-115.514" width="300" height="300" style="fill:none;"/><path id="_779e73ab-5b88-49f1-a89f-366033bbe2a6" serif:id="779e73ab-5b88-49f1-a89f-366033bbe2a6" d="M96.801,17.838l-7.77,0l0,34.124l19.529,0l0,-6.825l-11.759,0l0,-27.299Zm14.064,23.547c0,6.205 4.343,11.198 10.547,11.198c2.896,0 5.378,-1.271 6.943,-3.014l0.089,0l0,2.393l7.239,0l0,-21.213l-7.328,0l0,2.009c-1.713,-1.684 -4.077,-2.63 -6.943,-2.63c-6.204,0 -10.547,5.053 -10.547,11.257Zm7.77,0c0,-2.954 2.216,-5.023 4.964,-5.023c2.747,0 4.934,2.069 4.934,5.023c0,2.896 -2.068,4.964 -4.934,4.964c-2.955,0 -4.964,-2.068 -4.964,-4.964Zm22.957,-10.636l-3.043,0l0,5.584l3.043,0l0,8.154c0,3.753 1.418,8.096 7.238,8.096c3.044,0 5.378,-1.33 5.378,-1.33l-1.803,-5.909c0,0 -0.886,0.65 -1.831,0.65c-1.153,0 -1.655,-0.945 -1.655,-2.925l0,-6.736l4.461,0l0,-5.584l-4.461,0l0,-7.918l-7.327,0l0,7.918Zm15.097,21.213l7.328,0l0,-11.995c0,-2.098 2.156,-4.136 4.343,-4.136c2.363,0 3.811,2.038 3.811,4.136l0,11.995l7.327,0l0,-13.975c0,-5.909 -5.436,-7.859 -9.306,-7.859c-2.334,0 -4.432,1.182 -6.087,2.837l-0.088,0l0,-16.575l-7.328,0l0,35.572Zm48.809,-9.602c0.059,-0.236 0.059,-0.709 0.059,-0.975c0,-7.445 -4.934,-11.257 -11.375,-11.257c-6.411,0 -11.67,5.053 -11.67,11.257c0,6.146 5.259,11.198 11.67,11.198c4.698,0 8.598,-1.537 10.991,-5.555l-5.288,-2.629c-1.773,1.891 -2.807,2.363 -5.171,2.363c-1.861,0 -4.579,-1.122 -4.579,-4.402l15.363,0Zm-15.157,-4.048c0.119,-1.95 1.507,-3.427 4.048,-3.427c2.157,0 3.664,1.182 4.018,3.427l-8.066,0Zm18.555,13.65l7.327,0l0,-11.168c0,-0.532 0.532,-4.313 4.343,-4.313c2.453,0 3.812,1.181 3.812,1.181l3.043,-6.204c0,0 -1.891,-1.33 -4.609,-1.33c-4.196,0 -6.5,3.664 -6.5,3.664l-0.089,0l0,-3.043l-7.327,0l0,21.213Z" style="fill-rule:nonzero;"/><path id="_607d8f4f-e4e8-4698-8745-4087ebc652c4" serif:id="607d8f4f-e4e8-4698-8745-4087ebc652c4" d="M74.036,29.456l-11.595,-6.696c0.105,-0.327 0.161,-0.669 0.166,-1.012c0,-1.014 -0.443,-1.976 -1.2,-2.644c0.019,-0.167 0.03,-0.329 0.03,-0.493c-0.003,-2.597 -2.14,-4.733 -4.737,-4.736c-0.894,0 -1.763,0.256 -2.515,0.733c-0.786,-1.288 -2.21,-2.112 -3.746,-2.112c-1.292,0 -2.45,0.564 -3.253,1.455l-4.011,-2.315c-0.505,-0.289 -1.067,-0.464 -1.646,-0.512c-0.391,-2.051 -2.195,-3.607 -4.358,-3.607c-0.97,0 -1.9,0.317 -2.666,0.902c-1.139,-0.706 -2.454,-1.079 -3.794,-1.077c-3.477,0 -6.486,2.508 -7.113,5.928c-1.177,0.129 -2.286,0.622 -3.169,1.41c-1.32,-0.774 -2.824,-1.182 -4.354,-1.181c-4.772,0 -8.654,3.882 -8.654,8.654c0,2.189 0.851,4.324 2.348,5.92c-0.281,0.689 -0.426,1.427 -0.428,2.171c0,1.154 0.356,2.294 1.007,3.247c-0.104,0.361 -0.156,0.735 -0.157,1.111c-0.005,1.854 1.226,3.499 3.006,4.017c0.178,1.69 1.619,2.989 3.319,2.992c0.269,0 0.534,-0.034 0.79,-0.097c0.343,0.739 0.906,1.355 1.61,1.765l30.863,17.818c1.232,0.711 2.756,0.711 3.989,0l20.266,-11.702c1.233,-0.712 1.995,-2.031 1.995,-3.455l0.002,-13.029c0,-1.423 -0.762,-2.743 -1.995,-3.455Zm-25.78,-14.886c0.588,-0.561 1.37,-0.875 2.183,-0.877c1.313,0.007 2.495,0.819 2.974,2.042l0.311,0.804l0.643,-0.572c0.641,-0.574 1.472,-0.892 2.332,-0.894c1.941,0.002 3.538,1.599 3.54,3.54c0,0.2 -0.021,0.405 -0.066,0.624l-0.077,0.383l0.318,0.225c0.621,0.435 0.993,1.146 0.995,1.904c0,0.135 -0.018,0.265 -0.04,0.394c-0.19,1.115 -1.164,1.939 -2.295,1.941c-0.983,0 -1.865,-0.623 -2.194,-1.55l-0.127,-0.36l-0.378,-0.037c-0.525,-0.053 -1.031,-0.222 -1.482,-0.494l-0.465,-0.282l-0.324,0.436c-0.547,0.735 -1.41,1.172 -2.326,1.176c-1.604,0 -2.908,-1.305 -2.906,-2.977l0.015,-0.33l-0.271,-0.189c-0.85,-0.592 -1.36,-1.562 -1.364,-2.598c0.001,-0.875 0.365,-1.711 1.004,-2.309Zm-1.776,26.064c-0.065,0.545 -0.229,1.075 -0.482,1.562c-0.679,1.312 -1.96,2.209 -3.425,2.399l-0.464,0.061l-0.052,0.466c-0.18,1.619 -1.565,2.857 -3.194,2.855c-1.763,-0.002 -3.212,-1.451 -3.215,-3.214c0,-0.231 0.028,-0.467 0.083,-0.699l0.103,-0.443l-0.398,-0.218c-0.999,-0.542 -1.677,-1.536 -1.816,-2.664l-0.055,-0.434l-0.43,-0.079c-1.336,-0.249 -2.314,-1.427 -2.311,-2.787l0.025,-0.482l-0.303,-0.187c-0.102,-0.064 -0.201,-0.131 -0.298,-0.203l-0.306,-0.225l-0.334,0.181c-0.733,0.397 -1.554,0.605 -2.388,0.606c-1.375,0.006 -2.694,-0.56 -3.638,-1.56l-0.336,-0.355l-0.415,0.259c-0.332,0.208 -0.689,0.373 -1.063,0.489l-0.378,0.118l-0.04,0.393c-0.134,1.362 -1.206,2.458 -2.565,2.623l-0.286,0.037l-0.15,0.247c-0.309,0.502 -0.812,0.855 -1.389,0.976c-0.145,0.034 -0.293,0.053 -0.442,0.058c-1.18,0 -2.141,-0.961 -2.141,-2.142l0.031,-0.635l-0.527,-0.089c-1.435,-0.237 -2.496,-1.492 -2.492,-2.946c0,-0.339 0.061,-0.678 0.184,-1.008l0.115,-0.31l-0.201,-0.263c-0.613,-0.797 -0.946,-1.773 -0.948,-2.777c0,-0.7 0.166,-1.402 0.481,-2.032l0.196,-0.393l-0.316,-0.305c-1.452,-1.405 -2.276,-3.34 -2.281,-5.36c0,-4.112 3.344,-7.457 7.456,-7.457c1.464,0 2.883,0.428 4.103,1.237l0.419,0.278l0.346,-0.364c0.831,-0.88 1.981,-1.39 3.191,-1.415l0.521,-0.013l0.059,-0.518c0.342,-3.008 2.976,-5.363 5.997,-5.363c1.256,0 2.464,0.385 3.492,1.115l0.402,0.285l0.357,-0.339c0.595,-0.568 1.387,-0.885 2.209,-0.886c1.528,0 2.804,1.065 3.145,2.49c0.058,0.242 0.097,0.492 0.097,0.752c0,1.759 -1.43,3.213 -3.187,3.242l-0.488,0.008l-0.09,0.481c-0.251,1.322 -0.935,2.524 -1.944,3.416l-0.335,0.295l0.189,0.406c0.28,0.6 0.428,1.264 0.428,1.921c-0.002,1.021 -0.346,2.013 -0.977,2.816l-0.212,0.268l0.124,0.318c0.147,0.381 0.222,0.773 0.222,1.165c0,0.527 -0.132,1.056 -0.381,1.527l-0.344,0.651l0.708,0.204c1.458,0.426 2.607,1.561 3.051,3.014l0.115,0.381l0.395,0.043c1.47,0.162 2.606,1.4 2.641,2.879l0.015,0.715l0.701,-0.14c0.298,-0.061 0.601,-0.092 0.905,-0.092c2.513,0.003 4.58,2.07 4.583,4.584c-0.001,0.195 -0.029,0.386 -0.052,0.576Zm25.961,-7.032l-17.554,10.134c-1.536,0.951 -2.295,2.303 -2.303,4.139l-0.012,0l0,9.768c0.001,0.011 0.001,0.022 0.001,0.033c0,0.438 -0.361,0.799 -0.799,0.799c-0.438,0 -0.798,-0.361 -0.798,-0.799c0,-0.011 0,-0.022 0,-0.033l0,-9.968c-0.058,-1.662 -0.754,-2.919 -2.116,-3.825l-1.817,-1.049c0.254,-0.48 0.438,-0.994 0.548,-1.526l1.739,1.005l0.013,-0.019c1.641,0.938 3.248,0.938 4.889,0l0.005,0.01l17.407,-10.05c0.115,-0.061 0.242,-0.092 0.372,-0.092c0.438,0 0.798,0.36 0.798,0.798c0,0.274 -0.141,0.529 -0.373,0.675Z" style="fill:url(#_Linear2);fill-rule:nonzero;"/></g><defs><linearGradient id="_Linear2" x1="0" y1="0" x2="1" y2="0" gradientUnits="userSpaceOnUse" gradientTransform="matrix(62.1817,28.9958,-28.9958,62.1817,4.04087,6.89644)"><stop offset="0" style="stop-color:#70243d;stop-opacity:1"/><stop offset="1" style="stop-color:#c15767;stop-opacity:1"/></linearGradient></defs></svg>